<?xml version="1.0" encoding="UTF-8" standalone="no"?>
<svg width="35px" height="208px" viewBox="0 0 35 208" version="1.1" xmlns="http://www.w3.org/2000/svg" xmlns:xlink="http://www.w3.org/1999/xlink">
    <!-- Generator: Sketch 3.6.1 (26313) - http://www.bohemiancoding.com/sketch -->
    <title>nav_svgs</title>
    <desc>Created with Sketch.</desc>
    <defs>
        <path id="path-1" d="M0,0.724079494 L30.2494118,0.724079494 L30.2494118,30.5154316 L0,30.5154316"></path>
        <path id="path-3" d="M0,0.724079494 L30.2494118,0.724079494 L30.2494118,30.5154316 L0,30.5154316"></path>
        <path id="path-5" d="M0,0.827895034 L33.3,0.827895034 L33.3,24.6062882 L0,24.6062882"></path>
        <path id="path-7" d="M0,0.827895034 L33.3,0.827895034 L33.3,24.6062882 L0,24.6062882"></path>
        <path id="path-9" d="M0,0.309592769 L31.6856471,0.309592769 L31.6856471,31.5154316 L0,31.5154316 L0,0.309592769 Z"></path>
        <path id="path-11" d="M0,0.309592769 L31.6856471,0.309592769 L31.6856471,31.5154316 L0,31.5154316"></path>
    </defs>
    <g id="Page-1" stroke="none" stroke-width="1" fill="none" fill-rule="evenodd">
        <g id="nav_svgs">
            <g id="Search" transform="translate(2.000000, 1.000000)">
                <g id="Group-3">
                    <mask id="mask-2" fill="white">
                        <use xlink:href="#path-1"></use>
                    </mask>
                    <g id="Clip-2"></g>
                    <path d="M20.4852706,2.57737226 C16.1389176,2.57737226 12.6038588,6.05890053 12.6038588,10.3394377 C12.6038588,12.4138946 13.4226824,14.3622898 14.9116235,15.8286843 C16.4005647,17.2950788 18.3808,18.103357 20.4852706,18.103357 C24.8316235,18.103357 28.3666824,14.6218287 28.3666824,10.3394377 C28.3666824,6.05890053 24.8316235,2.57737226 20.4852706,2.57737226 M20.4852706,19.9572059 C17.8782118,19.9572059 15.4255059,18.9561275 13.5808,17.1393555 C11.7360941,15.3225836 10.7215059,12.9088723 10.7215059,10.3394377 C10.7215059,5.03742977 15.1017412,0.72352334 20.4852706,0.72352334 C25.8688,0.72352334 30.2490353,5.03742977 30.2490353,10.3394377 C30.2490353,15.6432994 25.8688,19.9572059 20.4852706,19.9572059" id="Fill-1" fill="#000000" mask="url(#mask-2)"></path>
                </g>
                <path d="M0.941176471,29.5885072 L14.2456471,16.485503" id="Fill-4" fill="#000000"></path>
                <g id="Group-8">
                    <mask id="mask-4" fill="white">
                        <use xlink:href="#path-3"></use>
                    </mask>
                    <g id="Clip-7"></g>
                    <path d="M0.941176471,30.5154316 C0.700235294,30.5154316 0.459294118,30.424593 0.274823529,30.2447697 C-0.0922352941,29.8814153 -0.0922352941,29.295599 0.274823529,28.9322446 L13.5811765,15.8292405 C13.9482353,15.4677399 14.5449412,15.4677399 14.912,15.8292405 C15.2790588,16.190741 15.2790588,16.7784111 14.912,17.1399117 L1.60752941,30.2447697 C1.42305882,30.424593 1.18211765,30.5154316 0.941176471,30.5154316" id="Fill-6" fill="#000000" mask="url(#mask-4)"></path>
                </g>
            </g>
            <g id="ListenLive" transform="translate(1.000000, 36.000000)">
                <path d="M16.65,10.6394368 C16.11,10.6394368 15.568,10.8423174 15.158,11.2480786 C14.76,11.6400517 14.54,12.1620261 14.54,12.7174856 C14.54,13.272945 14.76,13.7949194 15.158,14.1868926 C15.98,14.9964452 17.32,14.9964452 18.142,14.1868926 C18.54,13.7949194 18.76,13.272945 18.76,12.7174856 C18.76,12.1620261 18.54,11.6400517 18.142,11.2480786 C17.732,10.8423174 17.19,10.6394368 16.65,10.6394368 M16.65,16.7632791 C15.598,16.7632791 14.544,16.3693362 13.744,15.5794807 C12.968,14.8152315 12.54,13.7988588 12.54,12.7174856 C12.54,11.6361123 12.968,10.6197396 13.744,9.85549042 C15.346,8.27577941 17.954,8.27577941 19.556,9.85549042 C20.332,10.6197396 20.76,11.6361123 20.76,12.7174856 C20.76,13.7988588 20.332,14.8152315 19.556,15.5794807 C18.754,16.3693362 17.702,16.7632791 16.65,16.7632791" id="Fill-1" fill="#000000"></path>
                <path d="M23.4048,20.3542656 C23.1488,20.3542656 22.8928,20.2577495 22.6968,20.0666872 C22.3068,19.6806232 22.3068,19.0581934 22.6968,18.6721294 C24.3128,17.0825698 25.2028,14.9670965 25.2028,12.7176825 C25.2028,10.4662989 24.3128,8.35279525 22.6968,6.76126595 C22.3068,6.37717163 22.3068,5.75277214 22.6968,5.36867782 C23.0888,4.98458349 23.7208,4.98458349 24.1128,5.36867782 C26.1048,7.33051343 27.2028,9.94038512 27.2028,12.7176825 C27.2028,15.4930102 26.1048,18.1028819 24.1128,20.0666872 C23.9168,20.2577495 23.6608,20.3542656 23.4048,20.3542656" id="Fill-3" fill="#000000"></path>
                <path d="M9.895,20.3542656 C9.639,20.3542656 9.383,20.2577495 9.187,20.0666872 C7.195,18.1028819 6.097,15.4930102 6.097,12.7176825 C6.097,9.94038512 7.195,7.33051343 9.187,5.36867782 C9.579,4.98458349 10.211,4.98458349 10.603,5.36867782 C10.993,5.75277214 10.993,6.37717163 10.603,6.76126595 C8.987,8.35279525 8.097,10.4662989 8.097,12.7176825 C8.097,14.9670965 8.987,17.0825698 10.603,18.6721294 C10.993,19.0581934 10.993,19.6806232 10.603,20.0666872 C10.407,20.2577495 10.151,20.3542656 9.895,20.3542656" id="Fill-5" fill="#000000"></path>
                <g id="Group-9">
                    <mask id="mask-6" fill="white">
                        <use xlink:href="#path-5"></use>
                    </mask>
                    <g id="Clip-8"></g>
                    <path d="M5.5776,24.6062882 C5.3216,24.6062882 5.0656,24.5097722 4.8696,24.3187099 C-1.6244,17.9210773 -1.6244,7.51310597 4.8696,1.11744306 C5.2616,0.731379025 5.8936,0.731379025 6.2856,1.11744306 C6.6756,1.50153738 6.6756,2.12396716 6.2856,2.5100312 C0.5696,8.13750546 0.5696,17.2966778 6.2856,22.924152 C6.6756,23.3102161 6.6756,23.9326458 6.2856,24.3187099 C6.0896,24.5097722 5.8336,24.6062882 5.5776,24.6062882" id="Fill-7" fill="#000000" mask="url(#mask-6)"></path>
                </g>
                <g id="Group-12">
                    <mask id="mask-8" fill="white">
                        <use xlink:href="#path-7"></use>
                    </mask>
                    <g id="Clip-11"></g>
                    <path d="M27.7222,24.6062882 C27.4662,24.6062882 27.2102,24.5097722 27.0142,24.3187099 C26.6242,23.9326458 26.6242,23.3102161 27.0142,22.924152 C32.7302,17.2966778 32.7302,8.13750546 27.0142,2.5100312 C26.6242,2.12396716 26.6242,1.50153738 27.0142,1.11744306 C27.4062,0.731379025 28.0382,0.731379025 28.4302,1.11744306 C34.9242,7.51310597 34.9242,17.9210773 28.4302,24.3187099 C28.2342,24.5097722 27.9782,24.6062882 27.7222,24.6062882" id="Fill-10" fill="#000000" mask="url(#mask-8)"></path>
                </g>
            </g>
            <g id="schedule" transform="translate(2.000000, 64.000000)" fill="#000000">
                <path d="M17.1684001,16.8122344 C17.1890886,16.7129057 17.1999512,16.609956 17.1999512,16.5044548 L17.1999512,7.49554521 C17.1999512,6.67955446 16.5283783,6 15.6999512,6 C14.8657484,6 14.1999512,6.6695784 14.1999512,7.49554521 L14.1999512,16.4318834 L9.42992532,20.5784036 C8.80695403,21.1199443 8.74064028,22.0674328 9.28413737,22.6926547 C9.83142363,23.3222355 10.7740889,23.3849791 11.3981024,22.8425324 L16.6854452,18.2463154 C17.107744,17.8792167 17.274248,17.3255772 17.1684001,16.8122344 Z M15.5,31 C24.0604136,31 31,24.0604136 31,15.5 C31,6.93958638 24.0604136,0 15.5,0 C6.93958638,0 0,6.93958638 0,15.5 C0,24.0604136 6.93958638,31 15.5,31 Z M15.5,29 C22.9558441,29 29,22.9558441 29,15.5 C29,8.04415588 22.9558441,2 15.5,2 C8.04415588,2 2,8.04415588 2,15.5 C2,22.9558441 8.04415588,29 15.5,29 Z" id="Combined-Shape"></path>
            </g>
            <g id="Shows" transform="translate(2.000000, 98.000000)">
                <g id="Group-3">
                    <mask id="mask-10" fill="white">
                        <use xlink:href="#path-9"></use>
                    </mask>
                    <g id="Clip-2"></g>
                    <path d="M2.79962353,12.3586838 C2.29327059,12.3586838 1.88291765,12.7646767 1.88291765,13.2615082 L1.88291765,28.7578314 C1.88291765,29.2565167 2.29327059,29.6606558 2.79962353,29.6606558 L28.8852706,29.6606558 C29.3916235,29.6606558 29.8038588,29.2565167 29.8038588,28.7578314 L29.8038588,13.2615082 C29.8038588,12.7646767 29.3916235,12.3586838 28.8852706,12.3586838 L2.79962353,12.3586838 Z M28.8852706,31.5145047 L2.79962353,31.5145047 C1.25609412,31.5145047 0.000564705882,30.2798413 0.000564705882,28.7578314 L0.000564705882,13.2615082 C0.000564705882,11.7413521 1.25609412,10.5048349 2.79962353,10.5048349 L28.8852706,10.5048349 C30.4306824,10.5048349 31.6862118,11.7413521 31.6862118,13.2615082 L31.6862118,28.7578314 C31.6862118,30.2798413 30.4306824,31.5145047 28.8852706,31.5145047 L28.8852706,31.5145047 Z" id="Fill-1" fill="#000000" mask="url(#mask-10)"></path>
                </g>
                <path d="M11.0765563,12 C10.8402728,12 10.6039893,11.9095431 10.4230848,11.7304754 L3.26997231,4.57699605 C2.91000923,4.21516845 2.91000923,3.63181375 3.26997231,3.26998615 C3.63178136,2.91000462 4.21510614,2.91000462 4.57691519,3.26998615 L11.7300277,10.4234655 C12.0899908,10.7852931 12.0899908,11.3686478 11.7300277,11.7304754 C11.5491232,11.9095431 11.3128397,12 11.0765563,12" id="Fill-4" fill="#000000"></path>
                <path d="M19.9132221,12 C19.679554,12 19.445886,11.9105198 19.266984,11.7333855 C18.9110053,11.3754647 18.9110053,10.7984087 19.266984,10.4404878 L24.4405398,5.26707102 C24.798344,4.91097633 25.3752119,4.91097633 25.733016,5.26707102 C26.0889947,5.62499185 26.0889947,6.20204787 25.733016,6.55996869 L20.5594602,11.7333855 C20.3805581,11.9105198 20.1468901,12 19.9132221,12" id="Fill-6" fill="#000000"></path>
                <path d="M10.4990295,17.9410623 C8.53661549,17.9410623 6.94106229,19.5366155 6.94106229,21.4990295 C6.94106229,23.4614434 8.53661549,25.0589377 10.4990295,25.0589377 C12.4633845,25.0589377 14.0589377,23.4614434 14.0589377,21.4990295 C14.0589377,19.5366155 12.4633845,17.9410623 10.4990295,17.9410623 M10.4990295,27 C7.46709017,27 5,24.5329098 5,21.4990295 C5,18.4670902 7.46709017,16 10.4990295,16 C13.5309688,16 16,18.4670902 16,21.4990295 C16,24.5329098 13.5309688,27 10.4990295,27" id="Fill-8" fill="#000000"></path>
                <path d="M25.1,21 L17.9,21 C17.4032,21 17,20.552 17,20 C17,19.448 17.4032,19 17.9,19 L25.1,19 C25.5968,19 26,19.448 26,20 C26,20.552 25.5968,21 25.1,21" id="Fill-10" fill="#000000"></path>
                <path d="M25.1,25 L17.9,25 C17.4032,25 17,24.552 17,24 C17,23.448 17.4032,23 17.9,23 L25.1,23 C25.5968,23 26,23.448 26,24 C26,24.552 25.5968,25 25.1,25" id="Fill-12" fill="#000000"></path>
                <g id="Group-16">
                    <mask id="mask-12" fill="white">
                        <use xlink:href="#path-11"></use>
                    </mask>
                    <g id="Clip-15"></g>
                    <path d="M2.66541176,2.16251476 C2.23435294,2.16251476 1.88235294,2.50918451 1.88235294,2.93556976 C1.88235294,3.36010117 2.23435294,3.70677091 2.66541176,3.70677091 C3.09647059,3.70677091 3.45035294,3.36010117 3.45035294,2.93556976 C3.45035294,2.50918451 3.09647059,2.16251476 2.66541176,2.16251476 M2.66541176,5.56061983 C1.19529412,5.56061983 0,4.38342577 0,2.93556976 C0,1.48771376 1.19529412,0.308665845 2.66541176,0.308665845 C4.13552941,0.308665845 5.33270588,1.48771376 5.33270588,2.93556976 C5.33270588,4.38342577 4.13552941,5.56061983 2.66541176,5.56061983" id="Fill-14" fill="#000000" mask="url(#mask-12)"></path>
                </g>
                <path d="M26.4991175,3.76491352 C26.0949523,3.76491352 25.7649135,4.09495235 25.7649135,4.50088246 C25.7649135,4.90504765 26.0949523,5.23508648 26.4991175,5.23508648 C26.9032827,5.23508648 27.2350865,4.90504765 27.2350865,4.50088246 C27.2350865,4.09495235 26.9032827,3.76491352 26.4991175,3.76491352 M26.4991175,7 C25.1207201,7 24,5.87927992 24,4.50088246 C24,3.122485 25.1207201,2 26.4991175,2 C27.877515,2 29,3.122485 29,4.50088246 C29,5.87927992 27.877515,7 26.4991175,7" id="Fill-17" fill="#000000"></path>
            </g>
            <g id="Topics" transform="translate(3.000000, 134.000000)" fill="#000000">
                <path d="M0,2.00276013 C0,0.896666251 0.893542647,0 2.00276013,0 L10.9972399,0 C12.1033337,0 13,0.893542647 13,2.00276013 L13,10.9972399 C13,12.1033337 12.1064574,13 10.9972399,13 L2.00276013,13 C0.896666251,13 0,12.1064574 0,10.9972399 L0,2.00276013 Z M1.55004883,2.54520226 C1.55004883,1.99545936 2.00571322,1.54980469 2.5454464,1.54980469 L10.5546513,1.54980469 C11.1043942,1.54980469 11.5500488,2.00546908 11.5500488,2.54520226 L11.5500488,10.5544071 C11.5500488,11.10415 11.0943844,11.5498047 10.5546513,11.5498047 L2.5454464,11.5498047 C1.9957035,11.5498047 1.55004883,11.0941403 1.55004883,10.5544071 L1.55004883,2.54520226 Z M16,2.00276013 C16,0.896666251 16.8935426,0 18.0027601,0 L26.9972399,0 C28.1033337,0 29,0.893542647 29,2.00276013 L29,10.9972399 C29,12.1033337 28.1064574,13 26.9972399,13 L18.0027601,13 C16.8966663,13 16,12.1064574 16,10.9972399 L16,2.00276013 Z M17.5500488,2.54520226 C17.5500488,1.99545936 18.0057132,1.54980469 18.5454464,1.54980469 L26.5546513,1.54980469 C27.1043942,1.54980469 27.5500488,2.00546908 27.5500488,2.54520226 L27.5500488,10.5544071 C27.5500488,11.10415 27.0943844,11.5498047 26.5546513,11.5498047 L18.5454464,11.5498047 C17.9957035,11.5498047 17.5500488,11.0941403 17.5500488,10.5544071 L17.5500488,2.54520226 Z M16,18.0027601 C16,16.8966663 16.8935426,16 18.0027601,16 L26.9972399,16 C28.1033337,16 29,16.8935426 29,18.0027601 L29,26.9972399 C29,28.1033337 28.1064574,29 26.9972399,29 L18.0027601,29 C16.8966663,29 16,28.1064574 16,26.9972399 L16,18.0027601 Z M17.5500488,18.5452023 C17.5500488,17.9954594 18.0057132,17.5498047 18.5454464,17.5498047 L26.5546513,17.5498047 C27.1043942,17.5498047 27.5500488,18.0054691 27.5500488,18.5452023 L27.5500488,26.5544071 C27.5500488,27.10415 27.0943844,27.5498047 26.5546513,27.5498047 L18.5454464,27.5498047 C17.9957035,27.5498047 17.5500488,27.0941403 17.5500488,26.5544071 L17.5500488,18.5452023 Z M0,18.0027601 C0,16.8966663 0.893542647,16 2.00276013,16 L10.9972399,16 C12.1033337,16 13,16.8935426 13,18.0027601 L13,26.9972399 C13,28.1033337 12.1064574,29 10.9972399,29 L2.00276013,29 C0.896666251,29 0,28.1064574 0,26.9972399 L0,18.0027601 Z M1.55004883,18.5452023 C1.55004883,17.9954594 2.00571322,17.5498047 2.5454464,17.5498047 L10.5546513,17.5498047 C11.1043942,17.5498047 11.5500488,18.0054691 11.5500488,18.5452023 L11.5500488,26.5544071 C11.5500488,27.10415 11.0943844,27.5498047 10.5546513,27.5498047 L2.5454464,27.5498047 C1.9957035,27.5498047 1.55004883,27.0941403 1.55004883,26.5544071 L1.55004883,18.5452023 Z" id="Combined-Shape"></path>
            </g>
            <g id="gift" transform="translate(1.000000, 170.000000)" fill="#000000">
                <path d="M25.8203543,9.50767459 L32.0479631,9.50767459 C32.0567671,9.50767459 32.0655432,9.50779234 32.0742898,9.50802635 C32.082829,9.50779236 32.0913996,9.50767459 32.1,9.50767459 C32.5970563,9.50767459 33,9.91176426 33,10.3985925 L33,19.9706105 C33,20.4626508 32.6005217,20.8615283 32.1,20.8615283 C31.6029437,20.8615283 31.2,20.4574387 31.2,19.9706105 L31.2,11.3999836 L1.8,11.3999836 L1.8,19.9706105 C1.8,20.4626508 1.40052166,20.8615283 0.9,20.8615283 C0.402943725,20.8615283 0,20.4574387 0,19.9706105 L0,10.3985925 C0,9.90655211 0.39947834,9.50767459 0.9,9.50767459 C0.908488173,9.50767459 0.9169489,9.50779244 0.925380644,9.50802652 C0.93423243,9.5077924 0.943118297,9.50767459 0.952036858,9.50767459 L7.15265998,9.50767459 C6.88094022,9.41766516 6.64325299,9.316818 6.44771094,9.20392174 C4.03417117,7.8104639 3.1521272,4.81972579 4.4776106,2.52392119 C5.803094,0.228116601 8.83417117,-0.503379974 11.2477109,0.890077865 C12.8283483,1.80265927 15.1040659,5.49374785 16.4865072,7.93262582 C17.8689484,5.49374785 20.144666,1.80265927 21.7253034,0.890077865 C24.1388432,-0.503379974 27.1699203,0.228116601 28.4954037,2.52392119 C29.8208871,4.81972579 28.9388432,7.8104639 26.5253034,9.20392174 C26.3297613,9.316818 26.0920741,9.41766516 25.8203543,9.50767459 Z M6.83994141,33.5996094 L6.83994141,18.2749902 C6.83994141,17.622834 6.30268311,17.0769104 5.63994141,17.0769104 C4.97257919,17.0769104 4.43994141,17.613309 4.43994141,18.2749902 L4.43994141,34.8019202 C4.43994141,35.4540764 4.97719971,36 5.63994141,36 C5.66013294,36 5.68020115,35.999509 5.700135,35.9985383 C5.71719504,35.99925 5.73434708,35.9996094 5.75158389,35.9996094 L27.2092634,35.9996094 C27.2194583,35.9998692 27.2296848,36 27.2399414,36 C27.2625485,36 27.285001,35.9993845 27.3072835,35.9981694 C27.9380712,35.967255 28.4499998,35.4424652 28.4499998,34.7996094 C28.4499998,34.7463792 28.4465773,34.6940061 28.4399414,34.642692 L28.4399414,18.2749902 C28.4399414,17.622834 27.9026831,17.0769104 27.2399414,17.0769104 C26.5725792,17.0769104 26.0399414,17.613309 26.0399414,18.2749902 L26.0399414,33.5996094 L6.83994141,33.5996094 Z M14.6846712,8.40120713 C14.6846712,8.40120713 12.1633256,3.48140594 10.6548632,2.61049479 C9.14640086,1.73958364 7.25197763,2.196769 6.4235505,3.63164687 C5.59512338,5.06652474 6.14640086,6.93573607 7.65486322,7.80664721 C9.16332558,8.67755836 14.6846712,8.40120713 14.6846712,8.40120713 Z M18.2883431,8.40120713 C18.2883431,8.40120713 20.8096887,3.48140594 22.3181511,2.61049479 C23.8266135,1.73958364 25.7210367,2.196769 26.5494638,3.63164687 C27.3778909,5.06652474 26.8266135,6.93573607 25.3181511,7.80664721 C23.8096887,8.67755836 18.2883431,8.40120713 18.2883431,8.40120713 Z"></path>
            </g>
        </g>
    </g>
</svg>