<svg width="452" height="123" viewBox="0 0 452 123" fill="none" xmlns="http://www.w3.org/2000/svg">
<path fill-rule="evenodd" clip-rule="evenodd" d="M377.491 0H434.185V63.9039H452V92.9512H434.185V120.195H396.753V92.9512H328.695L322.489 65.5065L377.491 0ZM363.124 64.1043H396.753V23.6384L363.124 64.1043Z" fill="white"/>
<path d="M211.429 0H307.904C311.72 6.38772 313.807 13.9042 313.807 22.2361V22.6368C313.807 45.0733 302.197 56.6922 281.379 71.7166L257.359 88.544H315.208V120.195H204.314V90.9479L256.758 50.8827C269.769 40.6661 274.974 34.0554 274.974 25.6417C274.974 16.627 268.769 11.2182 259.16 11.2182C249.752 11.2182 242.346 16.8273 231.337 29.4479L205.114 7.61235C207.208 4.90175 209.303 2.36267 211.429 0Z" fill="white"/>
<path fill-rule="evenodd" clip-rule="evenodd" d="M83.8353 0H180.118C187.137 10.174 191.434 24.6313 191.434 45.4739V45.8746C191.434 91.5489 168.614 123 126.779 123C105.761 123 90.7479 116.389 77.7368 106.373L95.9523 79.5293C105.761 87.1417 114.969 90.7475 125.978 90.7475C146.395 90.7475 151.6 72.7182 152.601 61.5C143.993 69.513 133.785 72.9185 122.775 72.9185C95.7521 72.9185 75.7351 55.8909 75.7351 28.4462V28.0456C75.7351 17.2371 78.6589 7.7565 83.8353 0ZM153.001 26.8436C153.001 37.0602 145.595 45.0733 133.384 45.0733C121.174 45.0733 113.367 37.2606 113.367 26.6433V26.2426C113.367 15.425 120.774 7.21169 132.984 7.21169C145.194 7.21169 153.001 15.6254 153.001 26.443V26.8436Z" fill="white"/>
<path d="M0 18.6598V0H53.5411V120.195H15.3085V15.0244L0 18.6598Z" fill="white"/>
</svg>
