<svg width="521" height="136" viewBox="0 0 521 136" fill="none" xmlns="http://www.w3.org/2000/svg">
<path d="M110.845 136H0V113.767L52.4211 73.7085C65.4263 63.4935 70.6284 56.8838 70.6284 48.4714C70.6284 39.4582 64.4259 34.0502 54.822 34.0502C45.4183 34.0502 38.0153 39.6584 27.0109 52.277L0.800325 30.4449C15.8064 11.0163 30.8124 0.400736 57.8233 0.400736C88.4356 0.400736 109.444 18.6275 109.444 45.0664V45.467C109.444 67.9 97.8393 79.5171 77.031 94.5391L53.0213 111.364H110.845V136Z" fill="white"/>
<path fill-rule="evenodd" clip-rule="evenodd" d="M239.85 136H162.64C140.311 123.472 126.055 100.174 126.055 73.3078V72.9072C126.055 32.648 158.468 0 201.686 0C244.903 0 276.916 32.2474 276.916 72.5066V72.9072C276.916 99.8466 262.403 123.378 239.85 136ZM237.1 73.3078C237.1 93.5375 222.894 110.763 201.686 110.763C180.277 110.763 165.671 93.1369 165.671 72.9072V72.5066C165.671 52.2769 179.877 35.0515 201.286 35.0515C222.694 35.0515 237.1 52.4772 237.1 72.9072V73.3078Z" fill="white"/>
<path d="M401.977 136H291.133V113.767L343.554 73.7083C356.559 63.4932 361.761 56.8835 361.761 48.4712C361.761 39.4579 355.559 34.05 345.955 34.05C336.551 34.05 329.148 39.6582 318.144 52.2768L291.933 30.4447C306.939 11.0161 321.945 0.400491 348.956 0.400491C379.568 0.400491 400.577 18.6273 400.577 45.0662V45.4667C400.577 67.8997 388.972 79.5168 368.164 94.5389L344.154 111.364H401.977V136Z" fill="white"/>
<path fill-rule="evenodd" clip-rule="evenodd" d="M520.9 136H483.485V115.77H415.458L409.255 88.3299L481.884 1.8027H520.9V86.7276H521V115.77H520.9V136ZM449.871 86.9279H483.485V46.4684L449.871 86.9279Z" fill="white"/>
</svg>
